M48
; DRILL file {KiCad 8.0.6} date 2024-12-18T16:55:10+0200
; FORMAT={-:-/ absolute / metric / decimal}
; #@! TF.CreationDate,2024-12-18T16:55:10+02:00
; #@! TF.GenerationSoftware,Kicad,Pcbnew,8.0.6
; #@! TF.FileFunction,Plated,1,2,PTH
FMAT,2
METRIC
; #@! TA.AperFunction,Plated,PTH,ViaDrill
T1C0.300
; #@! TA.AperFunction,Plated,PTH,ComponentDrill
T2C0.400
; #@! TA.AperFunction,Plated,PTH,ComponentDrill
T3C0.650
; #@! TA.AperFunction,Plated,PTH,ComponentDrill
T4C1.000
; #@! TA.AperFunction,Plated,PTH,ComponentDrill
T5C1.200
; #@! TA.AperFunction,Plated,PTH,ComponentDrill
T6C1.400
; #@! TA.AperFunction,Plated,PTH,ComponentDrill
T7C2.200
%
G90
G05
T1
X113.675Y-83.35
X114.05Y-66.975
X114.275Y-129.25
X114.775Y-117.95
X114.975Y-103.05
X115.275Y-85.35
X115.275Y-90.25
X118.175Y-79.35
X118.249Y-118.376
X118.675Y-106.95
X119.575Y-82.05
X119.975Y-76.85
X119.975Y-79.75
X120.0Y-70.494
X121.375Y-77.05
X121.475Y-98.75
X121.575Y-91.15
X122.875Y-69.85
X122.975Y-103.15
X123.06Y-89.886
X123.175Y-78.85
X123.175Y-98.95
X123.515Y-72.039
X123.675Y-103.65
X123.97Y-74.75
X124.475Y-77.15
X125.075Y-94.95
X125.252Y-92.116
X125.775Y-91.15
X126.375Y-93.05
X126.425Y-127.25
X126.475Y-68.05
X126.575Y-104.35
X126.675Y-71.65
X127.075Y-105.025
X127.95Y-85.475
X128.075Y-74.05
X128.875Y-87.3
X129.975Y-89.75
X130.075Y-77.65
X130.375Y-106.75
X130.475Y-93.95
X130.475Y-94.75
X130.575Y-95.65
X130.575Y-96.45
X130.575Y-97.45
X130.675Y-93.15
X130.975Y-98.15
X132.325Y-86.375
X132.575Y-91.95
X132.9Y-88.35
X133.075Y-99.25
X133.275Y-92.25
X133.375Y-97.45
X133.675Y-91.806
X133.975Y-126.55
X134.075Y-86.15
X134.25Y-90.279
X134.675Y-102.75
X134.8Y-88.249
X134.975Y-101.25
X135.575Y-90.95
X135.69Y-90.077
X136.075Y-85.65
X136.375Y-101.75
X136.736Y-71.781
X137.175Y-82.35
X137.175Y-100.25
X137.575Y-74.45
X137.975Y-73.25
X138.075Y-72.45
X138.175Y-117.75
X138.575Y-71.55
X138.775Y-68.85
X138.975Y-70.55
X138.975Y-87.65
X139.375Y-116.679
X139.575Y-98.05
X139.675Y-85.45
X139.975Y-118.35
X140.146Y-92.316
X140.275Y-101.75
X140.309Y-110.625
X140.475Y-96.55
X140.763Y-116.842
X141.075Y-111.05
X141.375Y-74.85
X141.475Y-77.65
X141.564Y-112.025
X141.675Y-85.35
X141.775Y-88.15
X141.794Y-91.673
X142.425Y-88.8
X142.675Y-112.65
X142.775Y-69.95
X142.775Y-94.35
X142.994Y-89.45
X143.075Y-73.95
X143.075Y-103.15
X143.275Y-97.85
X143.275Y-100.25
X143.428Y-93.803
X143.675Y-90.15
X143.875Y-105.15
X143.875Y-112.95
X143.975Y-106.45
X144.17Y-88.355
X144.275Y-92.05
X144.301Y-96.776
X144.325Y-90.7
X144.475Y-96.05
X144.575Y-82.75
X144.599Y-81.026
X144.616Y-78.091
X144.675Y-79.55
X144.886Y-89.139
X145.025Y-91.4
X145.201Y-95.876
X145.462Y-97.737
X145.675Y-89.65
X145.775Y-95.45
X145.875Y-87.25
X145.875Y-126.65
X146.136Y-90.389
X146.212Y-96.987
X146.475Y-110.61
X146.675Y-113.15
X146.975Y-96.25
X147.075Y-111.2
X147.275Y-72.05
X147.375Y-75.65
X147.575Y-102.65
X147.815Y-76.278
X147.975Y-86.85
X147.975Y-94.25
X148.075Y-116.65
X148.175Y-82.05
X148.541Y-79.298
X149.002Y-110.853
X149.2Y-116.55
X149.775Y-70.25
X149.875Y-111.25
X150.275Y-74.35
X150.411Y-111.566
X150.475Y-116.65
X150.491Y-112.766
X151.06Y-104.85
X151.363Y-81.352
X151.366Y-113.064
X151.375Y-67.75
X151.375Y-70.75
X151.475Y-74.45
X152.16Y-112.965
X152.36Y-117.45
X152.675Y-78.95
X152.675Y-95.45
X152.875Y-67.811
X152.951Y-112.774
X153.628Y-70.803
X153.769Y-113.056
X153.975Y-81.75
X154.075Y-75.15
X154.208Y-98.213
X154.475Y-72.45
X154.55Y-77.3
X155.075Y-96.55
X155.075Y-96.55
X155.075Y-97.75
X155.575Y-111.65
X155.675Y-74.05
X155.775Y-81.75
X155.775Y-94.166
X155.775Y-120.65
X155.975Y-95.95
X155.982Y-105.544
X156.1Y-72.325
X156.475Y-97.85
X156.475Y-111.85
X156.775Y-94.166
X157.575Y-83.35
X157.775Y-94.05
X157.775Y-96.75
X157.975Y-81.424
X158.175Y-100.85
X158.65Y-108.104
X158.875Y-73.45
X158.975Y-94.166
X159.126Y-71.425
X159.175Y-127.35
X159.275Y-110.95
X159.345Y-79.439
X159.975Y-120.55
X160.075Y-98.65
X160.275Y-90.75
X160.483Y-82.75
X160.575Y-117.15
X160.775Y-95.75
X160.775Y-111.05
X161.175Y-112.45
X161.375Y-70.812
X161.575Y-80.65
X161.575Y-98.75
X161.625Y-97.2
X161.675Y-68.55
X161.683Y-83.25
X161.818Y-78.985
X161.875Y-87.35
X161.875Y-94.15
X161.907Y-75.403
X162.002Y-95.85
X162.675Y-109.05
X162.875Y-112.55
X162.975Y-100.85
X163.143Y-84.018
X163.175Y-115.85
X163.502Y-94.674
X163.675Y-112.75
X163.833Y-98.28
X163.975Y-102.75
X164.075Y-86.65
X164.575Y-118.65
X165.125Y-128.802
X165.775Y-94.85
X165.975Y-73.65
X166.175Y-103.45
X166.575Y-91.25
X166.75Y-79.8
X166.975Y-87.35
X166.975Y-96.805
X167.075Y-91.95
X168.075Y-116.05
X168.457Y-86.307
X168.975Y-83.25
X169.0Y-78.7
X169.475Y-68.55
X169.575Y-71.15
X169.675Y-72.45
X169.675Y-87.15
X170.575Y-83.15
X170.675Y-102.35
X170.744Y-89.792
X171.034Y-86.32
X171.405Y-83.42
X172.35Y-129.7
X172.875Y-102.55
X173.375Y-86.875
X173.375Y-89.65
X173.375Y-97.95
X173.475Y-124.65
X173.575Y-105.95
X173.675Y-84.45
X173.775Y-92.45
X173.84Y-97.55
X174.41Y-100.505
X174.41Y-104.305
X174.61Y-105.305
X174.61Y-106.405
X174.61Y-107.254
X174.616Y-95.105
X175.01Y-96.005
X175.01Y-101.905
X175.175Y-68.25
X175.375Y-114.55
X176.375Y-87.15
X177.364Y-106.168
X177.51Y-99.605
X177.51Y-103.605
X177.61Y-102.605
X178.51Y-107.105
X180.875Y-127.95
X181.21Y-107.905
X181.375Y-73.05
X181.8Y-84.15
X182.11Y-95.505
X182.41Y-119.485
X182.91Y-96.105
X183.875Y-92.35
X184.055Y-87.062
X186.275Y-79.25
X187.275Y-113.063
X187.375Y-124.25
X187.675Y-90.25
X188.95Y-129.05
X190.375Y-104.1
X190.725Y-111.65
X190.725Y-114.15
X190.725Y-116.65
X192.225Y-114.05
X192.225Y-116.65
X192.575Y-111.65
X192.875Y-84.15
X193.275Y-74.25
X194.075Y-121.45
X195.175Y-97.45
T2
X115.383Y-126.983
X115.867Y-125.817
X115.867Y-128.15
X117.033Y-125.333
X117.033Y-128.633
X118.2Y-125.817
X118.2Y-128.15
X118.683Y-126.983
X129.15Y-69.0
X129.633Y-67.833
X129.633Y-70.167
X130.8Y-67.35
X130.8Y-70.65
X131.967Y-67.833
X131.967Y-70.167
X132.45Y-69.0
X191.35Y-70.0
X191.35Y-127.0
X191.833Y-68.833
X191.833Y-71.167
X191.833Y-125.833
X191.833Y-128.167
X193.0Y-68.35
X193.0Y-71.65
X193.0Y-125.35
X193.0Y-128.65
X194.167Y-68.833
X194.167Y-71.167
X194.167Y-125.833
X194.167Y-128.167
X194.65Y-70.0
X194.65Y-127.0
T4
X116.15Y-104.55
X116.15Y-107.05
X116.15Y-109.55
X116.15Y-112.05
X116.15Y-114.55
X130.875Y-83.325
X133.375Y-83.325
X135.875Y-83.325
X138.375Y-83.325
X140.875Y-83.325
X148.375Y-99.15
X150.875Y-99.15
X153.375Y-99.15
X155.875Y-99.15
X158.375Y-99.15
X162.175Y-85.25
X162.625Y-126.5
X164.675Y-85.25
X165.125Y-126.5
X167.175Y-85.25
X167.625Y-126.5
X169.675Y-85.25
X170.125Y-126.5
X172.175Y-85.25
X172.625Y-126.5
X189.075Y-109.1
X189.075Y-111.6
X189.075Y-114.1
X189.075Y-116.6
X189.075Y-119.1
T5
X116.475Y-92.55
X116.475Y-96.05
X116.475Y-99.55
X149.575Y-126.15
X153.075Y-126.15
X156.575Y-126.15
X188.51Y-95.305
X188.51Y-98.805
X188.51Y-102.305
T6
X124.975Y-125.688
X129.975Y-125.688
T7
X117.033Y-126.983
X130.8Y-69.0
X193.0Y-70.0
X193.0Y-127.0
T3
X114.875Y-69.33G85X114.075Y-69.33
G05
X114.875Y-77.97G85X114.075Y-77.97
G05
X119.205Y-69.33G85X118.105Y-69.33
G05
X119.205Y-77.97G85X118.105Y-77.97
G05
M30
